HIERARCHY
ROOT Hips
{
  OFFSET 53.2189 93.6689 9.14136
  CHANNELS 6 Xposition Yposition Zposition Zrotation Xrotation Yrotation
  JOINT spine
  {
    OFFSET 0 7.4756 0.429885
    CHANNELS 3 Zrotation Xrotation Yrotation
    JOINT spine1
    {
      OFFSET 0 9.92301 0
      CHANNELS 3 Zrotation Xrotation Yrotation
      JOINT spine2
      {
        OFFSET 0 9.50804 0
        CHANNELS 3 Zrotation Xrotation Yrotation
        JOINT Neck
        {
          OFFSET 0 24.4111 1.16384
          CHANNELS 3 Zrotation Xrotation Yrotation
          JOINT Head
          {
            OFFSET 0 7.37523 0
            CHANNELS 3 Zrotation Xrotation Yrotation
            End Site
            {
              OFFSET 0 17.8522 -5.88741
            }
          }
        }
        JOINT RightShoulder
        {
          OFFSET -4.00356 10.2679 -0.557468
          CHANNELS 3 Zrotation Xrotation Yrotation
          JOINT RightArm
          {
            OFFSET 0 13.4673 0
            CHANNELS 3 Zrotation Xrotation Yrotation
            JOINT RightArmRoll
            {
              OFFSET 0 6.79858 0
              CHANNELS 3 Zrotation Xrotation Yrotation
              JOINT RightForeArm
              {
                OFFSET 0 19.8018 0
                CHANNELS 3 Zrotation Xrotation Yrotation
                JOINT RightForeArmRoll
                {
                  OFFSET 0 7.62906 0
                  CHANNELS 3 Zrotation Xrotation Yrotation
                  JOINT RightHand
                  {
                    OFFSET 0 15.3098 0
                    CHANNELS 3 Zrotation Xrotation Yrotation
                    End Site
                    {
                      OFFSET 0 0 0
                    }
                  }
                }
              }
            }
          }
        }
        JOINT LeftShoulder
        {
          OFFSET 4.00356 10.2679 -0.557468
          CHANNELS 3 Zrotation Xrotation Yrotation
          JOINT LeftArm
          {
            OFFSET 0 13.4673 0
            CHANNELS 3 Zrotation Xrotation Yrotation
            JOINT LeftArmRoll
            {
              OFFSET 0 6.79858 0
              CHANNELS 3 Zrotation Xrotation Yrotation
              JOINT LeftForeArm
              {
                OFFSET 0 19.8018 0
                CHANNELS 3 Zrotation Xrotation Yrotation
                JOINT LeftForeArmRoll
                {
                  OFFSET 0 7.62906 0
                  CHANNELS 3 Zrotation Xrotation Yrotation
                  JOINT LeftHand
                  {
                    OFFSET 0 15.3098 0
                    CHANNELS 3 Zrotation Xrotation Yrotation
                    End Site
                    {
                      OFFSET 0 0 0
                    }
                  }
                }
              }
            }
          }
        }
      }
    }
  }
  JOINT RightUpLeg
  {
    OFFSET -6.62609 -1.21505 -1.01927
    CHANNELS 3 Zrotation Xrotation Yrotation
    JOINT RightUpLegRoll
    {
      OFFSET 0 17.9517 0
      CHANNELS 3 Zrotation Xrotation Yrotation
      JOINT RightLeg
      {
        OFFSET 0 -22.2304 0
        CHANNELS 3 Zrotation Xrotation Yrotation
        JOINT RightLegRoll
        {
          OFFSET 0 22.3032 0
          CHANNELS 3 Zrotation Xrotation Yrotation
          JOINT RightFoot
          {
            OFFSET 0 18.5636 0
            CHANNELS 3 Zrotation Xrotation Yrotation
            JOINT RightToeBase
            {
              OFFSET 0 15.5183 0
              CHANNELS 3 Zrotation Xrotation Yrotation
              End Site
              {
                OFFSET 0.00657761 7.51539 -0.866263
              }
            }
          }
        }
      }
    }
  }
  JOINT LeftUpLeg
  {
    OFFSET 6.62609 -1.21505 -1.01927
    CHANNELS 3 Zrotation Xrotation Yrotation
    JOINT LeftUpLegRoll
    {
      OFFSET 0 17.9518 0
      CHANNELS 3 Zrotation Xrotation Yrotation
      JOINT LeftLeg
      {
        OFFSET 0 22.2303 0
        CHANNELS 3 Zrotation Xrotation Yrotation
        JOINT LeftLegRoll
        {
          OFFSET 0 22.5093 0
          CHANNELS 3 Zrotation Xrotation Yrotation
          JOINT LeftFoot
          {
            OFFSET 0 18.3575 0
            CHANNELS 3 Zrotation Xrotation Yrotation
            JOINT LeftToeBase
            {
              OFFSET 0 15.5183 0
              CHANNELS 3 Zrotation Xrotation Yrotation
              End Site
              {
                OFFSET -0.029478 7.51538 -0.866263
              }
            }
          }
        }
      }
    }
  }
}
MOTION
Frames: 12
Frame Time: 0.00208333
53.1496 93.5956 8.09697 -1.01083 -3.39422 0.460362 0.263 -1.91791 0.0708264 0.51442 0.163972 0.123179 0.51328 1.80901 0.114776 -5.65515 14.4482 -1.40716 8.32889 3.59324 -2.4253 71.7897 -1.65968 -2.30914 99.4531 -0.280998 27.6759 -4.16681e-007 -4.46333e-007 -1.64228e-006 3.25277 1.17189 -1.24511 1.07506e-006 2.23166e-006 -2.99999 8.02985 -4.95139 0.69765 -75.8165 -1.54687 2.62851 -98.6338 4.08249 -24.036 -3.20827e-005 7.11662e-007 6.01509e-006 -3.22456 0.760229 0.832045 7.63816e-007 1.85589e-008 3.00001 -8.02985 -4.9514 -0.697658 -179.22 -1.0893 -1.23277 180 7.01548e-015 178.925 177.998 7.70997 179.755 8.90174e-007 -2.0949e-006 0.120077 -19.3014 68.8598 20.2713 8.13649 25.2327 -3.48774 -178.531 -1.47673 2.63412 4.54188e-006 -4.6773e-006 -1.06094 -2.20026 -6.60891 0.0754351 -4.10681e-007 -1.1432e-006 -0.0731315 18.4768 67.8418 -19.3947 -8.13649 25.2327 3.48774 
53.1417 93.5963 8.10447 -1.02348 -3.38904 0.473913 0.26302 -1.9215 0.0708663 0.515117 0.157026 0.122307 0.514192 1.80206 0.113871 -5.60459 14.4687 -1.42314 8.265 3.59571 -2.43274 71.8706 -1.6599 -2.31672 99.4214 -0.344451 27.7245 -4.16681e-007 -4.46333e-007 -1.64228e-006 3.23888 1.36614 -1.25618 1.07506e-006 2.23166e-006 -2.99999 8.02985 -4.95139 0.69765 -75.7214 -1.56121 2.62614 -98.6936 4.11044 -23.9852 -3.20827e-005 7.11662e-007 6.01509e-006 -3.24456 0.810817 0.834633 7.63816e-007 1.85589e-008 3.00001 -8.02985 -4.9514 -0.697658 -179.203 -1.09127 -1.245 180 7.01548e-015 178.925 178.002 7.69785 179.754 8.90174e-007 -2.0949e-006 0.119095 -19.298 68.856 20.268 8.13649 25.2327 -3.48774 -178.514 -1.46481 2.62617 4.54188e-006 -4.6773e-006 -1.06094 -2.20051 -6.61462 0.0754012 -4.10681e-007 -1.1432e-006 -0.0732594 18.4834 67.8498 -19.4019 -8.13649 25.2327 3.48774 
53.1406 93.5948 8.10002 -1.0362 -3.38442 0.48685 0.26305 -1.925 0.0710465 0.515852 0.150266 0.121666 0.515153 1.7953 0.113195 -5.55405 14.4902 -1.43873 8.20042 3.59822 -2.4399 71.9511 -1.6602 -2.32432 99.3914 -0.408176 27.7779 -4.16681e-007 -4.46333e-007 -1.64228e-006 3.22204 1.55588 -1.26692 1.07506e-006 2.23166e-006 -2.99999 8.02985 -4.95139 0.69765 -75.6252 -1.57586 2.62379 -98.7547 4.13746 -23.936 -3.20827e-005 7.11662e-007 6.01509e-006 -3.26319 0.859237 0.837072 7.63816e-007 1.85589e-008 3.00001 -8.02985 -4.9514 -0.697658 -179.185 -1.09308 -1.25751 180 7.01547e-015 178.925 178.007 7.68697 179.754 8.90174e-007 -2.0949e-006 0.118114 -19.2952 68.853 20.2655 8.13649 25.2327 -3.48774 -178.497 -1.4543 2.61804 4.54188e-006 -4.6773e-006 -1.06094 -2.2009 -6.61912 0.0753524 -4.10681e-007 -1.1432e-006 -0.0733504 18.4898 67.8573 -19.4087 -8.13649 25.2327 3.48774 
53.1305 93.5974 8.10325 -1.04897 -3.38019 0.499358 0.263086 -1.92844 0.0713247 0.516614 0.143637 0.121186 0.516148 1.78867 0.112678 -5.5035 14.5126 -1.45406 8.13535 3.60077 -2.44685 72.0314 -1.66057 -2.33191 99.3627 -0.472065 27.8346 -4.16681e-007 -4.46333e-007 -1.64228e-006 3.20315 1.74245 -1.27745 1.07506e-006 2.23166e-006 -2.99999 8.02985 -4.95139 0.69765 -75.5283 -1.59071 2.62147 -98.8168 4.16384 -23.888 -3.20827e-005 7.11662e-007 6.01509e-006 -3.28086 0.906142 0.839406 7.63816e-007 1.85589e-008 3.00001 -8.02985 -4.9514 -0.697658 -179.168 -1.09478 -1.27019 180 7.01547e-015 178.925 178.012 7.67695 179.753 8.90174e-007 -2.0949e-006 0.117135 -19.2929 68.8504 20.2633 8.13649 25.2327 -3.48774 -178.48 -1.44476 2.60977 4.54188e-006 -4.6773e-006 -1.06094 -2.20139 -6.62278 0.0752932 -4.10681e-007 -1.1432e-006 -0.0734157 18.4959 67.8645 -19.4153 -8.13649 25.2327 3.48774 
53.1299 93.6012 8.10163 -1.06177 -3.37618 0.511621 0.263126 -1.93184 0.071659 0.51739 0.137082 0.120799 0.517162 1.78212 0.112253 -5.45295 14.5353 -1.46924 8.07001 3.60333 -2.4537 72.1115 -1.66097 -2.33951 99.3348 -0.536017 27.8932 -4.16681e-007 -4.46333e-007 -1.64228e-006 3.18312 1.92721 -1.28785 1.07506e-006 2.23166e-006 -2.99999 8.02985 -4.95139 0.69765 -75.4309 -1.60568 2.61915 -98.8794 4.18987 -23.8407 -3.20827e-005 7.11662e-007 6.01509e-006 -3.29799 0.952179 0.841682 7.63816e-007 1.85589e-008 3.00001 -8.02985 -4.9514 -0.697658 -179.15 -1.09642 -1.28298 180 7.01547e-015 178.925 178.016 7.66742 179.752 8.90174e-007 -2.0949e-006 0.116156 -19.2909 68.8481 20.2615 8.13649 25.2327 -3.48774 -178.463 -1.43579 2.60143 4.54188e-006 -4.6773e-006 -1.06094 -2.20194 -6.62596 0.075228 -4.10681e-007 -1.1432e-006 -0.0734662 18.5019 67.8715 -19.4217 -8.13649 25.2327 3.48774 
53.1418 93.5925 8.08311 -1.07458 -3.37222 0.523823 0.263167 -1.93524 0.0720073 0.51817 0.130546 0.120434 0.518181 1.77558 0.111851 -5.40239 14.5582 -1.48439 8.0046 3.6059 -2.46051 72.1916 -1.66138 -2.34711 99.3072 -0.59993 27.9522 -4.16681e-007 -4.46333e-007 -1.64228e-006 3.16285 2.11152 -1.29824 1.07506e-006 2.23166e-006 -2.99999 8.02985 -4.95139 0.69765 -75.3334 -1.62068 2.61684 -98.9422 4.21581 -23.7936 -3.20827e-005 7.11662e-007 6.01509e-006 -3.31498 0.998 0.843943 7.63816e-007 1.85589e-008 3.00001 -8.02985 -4.9514 -0.697658 -179.132 -1.09805 -1.29579 180 7.01547e-015 178.925 178.021 7.65801 179.751 8.90174e-007 -2.0949e-006 0.115178 -19.2889 68.8459 20.2597 8.13649 25.2327 -3.48774 -178.446 -1.42695 2.59307 4.54188e-006 -4.6773e-006 -1.06094 -2.2025 -6.62903 0.0751613 -4.10681e-007 -1.1432e-006 -0.073513 18.5079 67.8785 -19.4282 -8.13649 25.2327 3.48774 
53.1346 93.5935 8.08581 -1.08738 -3.36816 0.536147 0.263206 -1.93865 0.0723275 0.518943 0.123972 0.120023 0.51919 1.76901 0.111403 -5.35181 14.5808 -1.49961 7.93933 3.60846 -2.46738 72.2717 -1.66177 -2.35471 99.2794 -0.663709 28.0104 -4.16681e-007 -4.46333e-007 -1.64228e-006 3.14326 2.29674 -1.30872 1.07506e-006 2.23166e-006 -2.99999 8.02985 -4.95139 0.69765 -75.2361 -1.63562 2.61452 -99.0048 4.24195 -23.7461 -3.20827e-005 7.11662e-007 6.01509e-006 -3.33225 1.04425 0.846234 7.63816e-007 1.85589e-008 3.00001 -8.02985 -4.9514 -0.697658 -179.114 -1.0997 -1.30855 180 7.01547e-015 178.925 178.026 7.64838 179.751 8.90174e-007 -2.0949e-006 0.114199 -19.2868 68.8436 20.2578 8.13649 25.2327 -3.48774 -178.429 -1.41783 2.58475 4.54188e-006 -4.6773e-006 -1.06094 -2.20303 -6.63233 0.0750977 -4.10681e-007 -1.1432e-006 -0.0735671 18.5139 67.8855 -19.4346 -8.13649 25.2327 3.48774 
53.1209 93.5955 8.09644 -1.10014 -3.36381 0.548777 0.263241 -1.9421 0.0725777 0.519696 0.117306 0.119497 0.520174 1.76234 0.110841 -5.30121 14.6029 -1.51503 7.8744 3.611 -2.4744 72.352 -1.66212 -2.36231 99.2509 -0.727262 28.0663 -4.16681e-007 -4.46333e-007 -1.64228e-006 3.12525 2.4842 -1.31937 1.07506e-006 2.23166e-006 -2.99999 8.02985 -4.95139 0.69765 -75.1394 -1.65041 2.61218 -99.0667 4.26858 -23.6978 -3.20827e-005 7.11662e-007 6.01509e-006 -3.35022 1.09159 0.848602 7.63816e-007 1.85589e-008 3.00001 -8.02985 -4.9514 -0.697658 -179.096 -1.10144 -1.32118 180 7.01547e-015 178.925 178.031 7.6381 179.75 8.90174e-007 -2.0949e-006 0.113219 -19.2843 68.8409 20.2555 8.13649 25.2327 -3.48774 -178.412 -1.40802 2.57653 4.54188e-006 -4.6773e-006 -1.06094 -2.20349 -6.63623 0.0750414 -4.10681e-007 -1.1432e-006 -0.0736397 18.5201 67.8928 -19.4413 -8.13649 25.2327 3.48774 
53.1285 93.5975 8.09129 -1.11286 -3.35902 0.561898 0.263268 -1.94563 0.0727158 0.520419 0.11049 0.118787 0.521119 1.75552 0.110096 -5.25058 14.6241 -1.53076 7.81003 3.6135 -2.48164 72.4327 -1.66239 -2.3699 99.2212 -0.7905 28.1185 -4.16681e-007 -4.46333e-007 -1.64228e-006 3.10974 2.67528 -1.33032 1.07506e-006 2.23166e-006 -2.99999 8.02985 -4.95139 0.69765 -75.0436 -1.66496 2.60983 -99.1277 4.29599 -23.6481 -3.20827e-005 7.11662e-007 6.01509e-006 -3.36928 1.14066 0.851089 7.63816e-007 1.85589e-008 3.00001 -8.02985 -4.9514 -0.697658 -179.079 -1.1033 -1.33361 180 7.01547e-015 178.925 178.035 7.62687 179.749 8.90174e-007 -2.0949e-006 0.112239 -19.2814 68.8376 20.2527 8.13649 25.2327 -3.48774 -178.395 -1.39708 2.56845 4.54188e-006 -4.6773e-006 -1.06094 -2.20384 -6.6411 0.0749971 -4.10681e-007 -1.1432e-006 -0.0737418 18.5266 67.9005 -19.4483 -8.13649 25.2327 3.48774 
53.1285 93.6075 8.08245 -1.12549 -3.35363 0.575693 0.263284 -1.94925 0.0726997 0.5211 0.10347 0.117824 0.522011 1.7485 0.1091 -5.19993 14.6442 -1.54691 7.74642 3.61595 -2.48919 72.5137 -1.66258 -2.37748 99.1897 -0.853337 28.1656 -4.16681e-007 -4.46333e-007 -1.64228e-006 3.09765 2.87133 -1.34165 1.07506e-006 2.23166e-006 -2.99999 8.02985 -4.95139 0.69765 -74.9489 -1.67919 2.60745 -99.1873 4.32444 -23.5966 -3.20827e-005 7.11662e-007 6.01509e-006 -3.38987 1.19212 0.853742 7.63816e-007 1.85589e-008 3.00001 -8.02985 -4.9514 -0.697658 -179.062 -1.10533 -1.34574 180 7.01547e-015 178.925 178.039 7.61428 179.749 8.90174e-007 -2.0949e-006 0.111256 -19.2777 68.8336 20.2492 8.13649 25.2327 -3.48774 -178.378 -1.38461 2.56058 4.54188e-006 -4.6773e-006 -1.06094 -2.20403 -6.64729 0.0749692 -4.10681e-007 -1.1432e-006 -0.0738845 18.5334 67.9087 -19.4557 -8.13649 25.2327 3.48774 
53.1225 93.5692 8.08256 -1.13804 -3.34745 0.590345 0.263287 -1.953 0.0724874 0.521728 0.0961883 0.116538 0.522833 1.74122 0.107783 -5.14923 14.6627 -1.56361 7.68378 3.61833 -2.49715 72.5954 -1.66264 -2.38506 99.1559 -0.915692 28.2062 -4.16681e-007 -4.46333e-007 -1.64228e-006 3.08989 3.0737 -1.35348 1.07506e-006 2.23166e-006 -2.99999 8.02985 -4.95139 0.69765 -74.8558 -1.693 2.60504 -99.2451 4.35424 -23.5428 -3.20827e-005 7.11662e-007 6.01509e-006 -3.41239 1.2466 0.856605 7.63816e-007 1.85589e-008 3.00001 -8.02985 -4.9514 -0.697658 -179.045 -1.10758 -1.35751 180 7.01547e-015 178.925 178.042 7.59996 179.748 8.90174e-007 -2.0949e-006 0.110271 -19.2732 68.8285 20.2447 8.13649 25.2327 -3.48774 -178.362 -1.37017 2.55298 4.54188e-006 -4.6773e-006 -1.06094 -2.20403 -6.65516 0.0749622 -4.10681e-007 -1.1432e-006 -0.0740787 18.5407 67.9175 -19.4635 -8.13649 25.2327 3.48774 
53.1202 93.5832 8.08657 -1.15048 -3.34033 0.60604 0.263274 -1.9569 0.0720369 0.522291 0.0885903 0.114861 0.523572 1.73362 0.106077 -5.0985 14.6793 -1.58096 7.62232 3.62063 -2.50558 72.6776 -1.66255 -2.39263 99.1194 -0.977486 28.2389 -4.16681e-007 -4.46333e-007 -1.64228e-006 3.0874 3.28374 -1.36591 1.07506e-006 2.23166e-006 -2.99999 8.02985 -4.95139 0.69765 -74.7645 -1.70631 2.60258 -99.3008 4.38567 -23.4861 -3.20827e-005 7.11662e-007 6.01509e-006 -3.43726 1.30477 0.859724 7.63816e-007 1.85589e-008 3.00001 -8.02985 -4.9514 -0.697658 -179.028 -1.11009 -1.36884 180 7.01547e-015 178.925 178.045 7.58358 179.748 8.90174e-007 -2.0949e-006 0.109283 -19.2675 68.8223 20.2391 8.13649 25.2327 -3.48774 -178.346 -1.35336 2.5457 4.54188e-006 -4.6773e-006 -1.06094 -2.2038 -6.66508 0.0749805 -4.10681e-007 -1.1432e-006 -0.0743356 18.5486 67.9271 -19.472 -8.13649 25.2327 3.48774 
